# xmcd CD database file
#
# Track frame offsets:
#	150
#	11690
#	28800
#	39422
#	62569
#	78105
#	98646
#	118453
#	136836
#	158571
#	172168
#	183364
#	203434
#	219259
#	237614
#
# Disc length: 3387 seconds
#
# Revision: 2
# Processed by: cddbd v1.5.2PL0 Copyright (c) Steve Scherf et al.
# Submitted via: Feurio! 1.68 - http://www.feurio.com
#
DISCID=c20d390f
DTITLE=Various Artist - Miami Vice and More  [CD2 von 2)
DYEAR=1900
DGENRE=
TTITLE0=Hammer - Crockett´s Theme
TTITLE1=Faltermeyer - Axel F.
TTITLE2=Zimmer - Theme From Rainman
TTITLE3=Vangelis - Chariots Of Fire
TTITLE4=Gessle - It Must Have Been Love
TTITLE5=Badalamenti+Lynch  - Theme From Twin Peaks
TTITLE6=Wayne - Eve Of The War
TTITLE7=Nitzsche+Ritenouer+Saintemaria - Love Theme
TTITLE8=Grusing - Theme From On Golden Pound
TTITLE9=Brooks - Because I Love You
TTITLE10=Lai - Theme From Emanuelle
TTITLE11=Vangelis - L´Opera Sauvage
TTITLE12=Menken+Ashman - Beauty and The Beast
TTITLE13=Barry - Theme From Out Of Africa
TTITLE14=Hammer - Rico´s Blues
EXTD=
EXTT0=
EXTT1=
EXTT2=
EXTT3=
EXTT4=
EXTT5=
EXTT6=
EXTT7=
EXTT8=
EXTT9=
EXTT10=
EXTT11=
EXTT12=
EXTT13=
EXTT14=
PLAYORDER=
